<svg width="233" height="150" viewBox="0 0 233 150" fill="none" xmlns="http://www.w3.org/2000/svg">
<rect x="152.974" y="102.014" width="29.7554" height="11.3848" fill="#015859"/>
<rect x="152.974" y="102.014" width="11.3848" height="34.4792" fill="#015859"/>
<rect x="171.352" y="102.014" width="11.3848" height="34.4792" fill="#015859"/>
<rect x="200.307" y="22.9546" width="30.193" height="11.3848" fill="#015859"/>
<rect x="200.307" y="22.9546" width="11.3848" height="34.4792" fill="#015859"/>
<rect x="219.123" y="22.9546" width="11.3848" height="34.4792" fill="#015859"/>
<rect x="64.2" y="22.5341" width="11.3848" height="34.0587" fill="#015859"/>
<rect x="25.2554" y="22.9546" width="11.3848" height="47.514" fill="#015859"/>
<rect x="0.89801" y="36.6287" width="11.3848" height="34.0587" fill="#015859"/>
<rect x="1.18848" y="59.5362" width="35.444" height="11.3848" fill="#015859"/>
<rect x="30.5958" y="46.2394" width="199.501" height="11.3848" fill="#015859"/>
<rect x="218.721" y="82.6718" width="11.3848" height="53.8212" fill="#015859"/>
<rect x="89.962" y="82.6718" width="11.3848" height="53.8212" fill="#015859"/>
<rect x="197.76" y="82.6422" width="11.3848" height="53.8212" fill="#015859"/>
<rect x="90.0788" y="125.335" width="119.066" height="11.3848" fill="#015859"/>
<path d="M169.55 57.4337V46.4631H144.603L154.26 33.1416V22.9546H114.023V33.1416L122.875 46.4631H99.5372V57.4337H169.55Z" fill="#015859"/>
<path d="M133.887 43.1375L127.255 32.1L140.519 32.1L133.887 43.1375Z" fill="white"/>
<rect width="8.85256" height="8.85256" transform="matrix(0.721057 -0.692876 0.721057 0.692876 57.2873 51.7436)" fill="white"/>
<rect width="8.85256" height="8.85256" transform="matrix(0.721057 -0.692876 0.721057 0.692876 69.4128 51.7436)" fill="white"/>
<rect width="8.85256" height="8.85256" transform="matrix(0.721057 -0.692876 0.721057 0.692876 155.554 107.889)" fill="white"/>
<rect width="8.85256" height="8.85256" transform="matrix(0.721057 -0.692876 0.721057 0.692876 167.679 107.889)" fill="white"/>
<rect x="66.3605" y="99.7194" width="11.3848" height="49.8084" fill="#015859"/>
<rect x="23.6676" y="99.7194" width="30.8338" height="11.3848" fill="#015859"/>
<rect x="0.806" y="111.297" width="11.3848" height="28.6255" fill="#015859"/>
<rect x="23.5602" y="100.752" width="11.3848" height="30.2744" fill="#015859"/>
<rect x="0.806" y="129.292" width="34.1313" height="11.3848" fill="#015859"/>
<rect x="91.0782" y="145.128" width="139.019" height="4.3372" fill="#BFBFBF"/>
<rect x="75.7319" y="9.80695" width="119.159" height="4.3372" fill="#BFBFBF"/>
<rect x="0.806" y="9.80695" width="36.1089" height="4.3372" fill="#BFBFBF"/>
<rect x="0.806" y="145.128" width="50.5524" height="4.3372" fill="#BFBFBF"/>
<rect x="145.7" y="82.9024" width="44.0204" height="4.16409" fill="#BFBFBF"/>
<rect x="0.806" y="103.696" width="11.3771" height="2.94334" fill="#015859"/>
<rect x="4.74425" y="97.3886" width="3.06306" height="9.25051" fill="#015859"/>
<rect x="4.74425" y="96.9682" width="6.12612" height="2.94334" fill="#015859"/>
<rect x="54.9758" y="138.617" width="22.7696" height="11.3848" fill="#015859"/>
<path d="M216.034 10.7708H203.918V14.1442H227.437L231 2L216.034 5.37338V10.7708Z" fill="#015859" stroke="#015859" stroke-width="2"/>
<path d="M224.801 10.6744H219.265V8.16847L226.486 7.20465L224.801 10.6744Z" fill="white"/>
<rect width="8.85256" height="8.85256" transform="matrix(0.721057 -0.692876 0.721057 0.692876 10.8597 22.8391)" fill="#015859"/>
</svg>
